<?xml version="1.0" encoding="utf-8"?>
<?xml-stylesheet type="text/xsl" href="rss1.xsl"?>
<rss version="2.0" xmlns:atom="http://www.w3.org/2005/Atom" xmlns:content="http://purl.org/rss/1.0/modules/content/" xmlns:dc="http://purl.org/dc/elements/1.1/" xmlns:media="http://search.yahoo.com/mrss/">
<channel>
 <title>Getty</title>
 <link>http://www.gettyimg.com/</link>
 <atom:link href="http://www.gettyimg.com/" rel="self" type="application/rss+xml" />

 
                <item>
                <title><![CDATA[【BLU-RAY】BLU-RAY - Ed Sheeran - Tenerife Sea - Jumpers for Goalposts (Live at Wembley Stadium 2015) 1080i Blu-ray AVC DTS-HD MA 5.1]]></title>
                <link><![CDATA[https://sharemania.us/threads/ed-sheeran-tenerife-sea-jumpers-for-goalposts-live-at-wembley-stadium-2015-1080i-blu-ray-avc-dts-hd-ma-5-1.220748/]]></link>
                <description><![CDATA[<article>
<blockquote class="messageText SelectQuoteContainer ugc baseHtml">
<img src="https://is5-ssl.mzstatic.com/image/thumb/Video1/v4/08/c7/6e/08c76e04-d029-b939-610a-2371c55cbabe/825646003112.pstr.jpg/100000x100000-999.jpg" class="bbCodeImage LbImage" alt="[​IMG]" data-url="https://is5-ssl.mzstatic.com/image/thumb/Video1/v4/08/c7/6e/08c76e04-d029-b939-610a-2371c55cbabe/825646003112.pstr.jpg/100000x100000-999.jpg" style=""> <br>
<img src="https://i.ibb.co/Jrx98pw/Ed-Sheeran-Tenerife-Sea-Jumpers-for-Goalposts-Live-at-Wembley-Stadium-2015-1080i-Blu-ray-AVC-DTS-HD.jpg" class="bbCodeImage LbImage" alt="[​IMG]" data-url="https://i.ibb.co/Jrx98pw/Ed-Sheeran-Tenerife-Sea-Jumpers-for-Goalposts-Live-at-Wembley-Stadium-2015-1080i-Blu-ray-AVC-DTS-HD.jpg" style=""> <br>
<div class="ToggleTriggerAnchor bbCodeSpoilerContainer">
<button type="button" class="button bbCodeSpoilerButton ToggleTrigger Tooltip JsOnly" data-target="> .SpoilerTarget"><span>Spoiler: <span class="SpoilerTitle">Media Info</span></span></button>
<div class="SpoilerTarget bbCodeSpoilerText">General<br>
ID : 0 (0x0)<br>
Complete name : Ed Sheeran - Tenerife Sea - Jumpers for Goalposts (Live at Wembley Stadium 2015) 1080i Blu-ray AVC DTS-HD MA 5.1.m2ts<br>
Format : BDAV<br>
Format/Info : Blu-ray Video<br>
File size : 1.98 GiB<br>
Duration : 6 min 44 s<br>
Overall bit rate mode : Variable<br>
Overall bit rate : 42.0 Mb/s<br>
Maximum Overall bit rate : 48.0 Mb/s<br>
Frame rate : 29.970 FPS<br>
<br>
Video<br>
ID : 4113 (0x1011)<br>
Menu ID : 1 (0x1)<br>
Format : AVC<br>
Format/Info : Advanced Video Codec<br>
Format profile : High@L4.1<br>
Format settings : CABAC / 2 Ref Frames<br>
Format settings, CABAC : Yes<br>
Format settings, Reference frames : 2 frames<br>
Codec ID : 27<br>
Duration : 6 min 44 s<br>
Bit rate mode : Variable<br>
Maximum bit rate : 38.2 Mb/s<br>
Width : 1 920 pixels<br>
Height : 1 080 pixels<br>
Display aspect ratio : 16:9<br>
Frame rate : 29.970 (30000/1001) FPS<br>
Color space : YUV<br>
Chroma subsampling : 4:2:0<br>
Bit depth : 8 bits<br>
Scan type : MBAFF<br>
Scan type, store method : Interleaved fields<br>
Scan order : Top Field First<br>
<br>
Audio #1<br>
ID : 4352 (0x1100)<br>
Menu ID : 1 (0x1)<br>
Format : PCM<br>
Format settings : Big / Signed<br>
Muxing mode : Blu-ray<br>
Codec ID : 128<br>
Duration : 6 min 44 s<br>
Bit rate mode : Constant<br>
Bit rate : 1 536 kb/s<br>
Channel(s) : 2 channels<br>
Channel layout : L R<br>
Sampling rate : 48.0 kHz<br>
Bit depth : 16 bits<br>
Stream size : 74.0 MiB (4%)<br>
<br>
Audio #2<br>
ID : 4353 (0x1101)<br>
Menu ID : 1 (0x1)<br>
Format : DTS XLL<br>
Format/Info : Digital Theater Systems<br>
Commercial name : DTS-HD Master Audio<br>
Muxing mode : Stream extension<br>
Codec ID : 134<br>
Duration : 6 min 44 s<br>
Bit rate mode : Variable<br>
Channel(s) : 6 channels<br>
Channel layout : C L R Ls Rs LFE<br>
Sampling rate : 48.0 kHz<br>
Frame rate : 93.750 FPS (512 SPF)<br>
Bit depth : 16 bits<br>
Compression mode : Lossless<br>
<br>
Audio #3<br>
ID : 4354 (0x1102)<br>
Menu ID : 1 (0x1)<br>
Format : AC-3<br>
Format/Info : Audio Coding 3<br>
Commercial name : Dolby Digital<br>
Codec ID : 129<br>
Duration : 6 min 44 s<br>
Bit rate mode : Constant<br>
Bit rate : 640 kb/s<br>
Channel(s) : 6 channels<br>
Channel layout : L R C LFE Ls Rs<br>
Sampling rate : 48.0 kHz<br>
Frame rate : 31.250 FPS (1536 SPF)<br>
Compression mode : Lossy<br>
Stream size : 30.8 MiB (2%)<br>
Service kind : Complete Main<br>
<br>
Text #1<br>
ID : 4608 (0x1200)<br>
Menu ID : 1 (0x1)<br>
Format : PGS<br>
Codec ID : 144<br>
Delay relative to video : 34 ms<br>
<br>
Text #2<br>
ID : 4609 (0x1201)<br>
Menu ID : 1 (0x1)<br>
Format : PGS<br>
Codec ID : 144<br>
Delay relative to video : 34 ms<br>
<br>
Text #3<br>
ID : 4610 (0x1202)<br>
Menu ID : 1 (0x1)<br>
Format : PGS<br>
Codec ID : 144<br>
Delay relative to video : 34 ms<br>
<br>
Text #4<br>
ID : 4611 (0x1203)<br>
Menu ID : 1 (0x1)<br>
Format : PGS<br>
Codec ID : 144<br>
Delay relative to video : 34 ms<br>
<br>
Text #5<br>
ID : 4612 (0x1204)<br>
Menu ID : 1 (0x1)<br>
Format : PGS<br>
Codec ID : 144<br>
Delay relative to video : 34 ms<br>
<br>
Text #6<br>
ID : 4613 (0x1205)<br>
Menu ID : 1 (0x1)<br>
Format : PGS<br>
Codec ID : 144<br>
Delay relative to video : 34 ms<br>
<br>
Text #7<br>
ID : 4614 (0x1206)<br>
Menu ID : 1 (0x1)<br>
Format : PGS<br>
Codec ID : 144<br>
Delay relative to video : 34 ms</div>
</div>Blu-ray disc ripped by me <img src="styles/default/xenforo/smilies/big_smile-48.png" class="mceSmilie" alt=":)" title="Smile    :)"><br>
<div class="bbCodeBlock bbCodeVfcHH HiddenContent">
<div class="attribution type">Hidden Content:</div>
<blockquote>You must either reply or click 'Like' to see the hidden information contained here.</blockquote>
</div>
<div class="messageTextEndMarker">&nbsp;</div>
</blockquote>
</article>]]></description>
                <author><![CDATA[szymek04sawicki]]></author>
                </item>

                </channel></rss>